<?xml version="1.0" encoding="UTF-8" standalone="no"?>
<!-- Created with Inkscape (http://www.inkscape.org/) -->

<svg
   width="64"
   height="64"
   viewBox="0 0 16.933333 16.933333"
   version="1.1"
   id="svg1"
   xml:space="preserve"
   inkscape:version="1.3 (0e150ed, 2023-07-21)"
   sodipodi:docname="documentation-icon.svg"
   xmlns:inkscape="http://www.inkscape.org/namespaces/inkscape"
   xmlns:sodipodi="http://sodipodi.sourceforge.net/DTD/sodipodi-0.dtd"
   xmlns="http://www.w3.org/2000/svg"
   xmlns:svg="http://www.w3.org/2000/svg"><sodipodi:namedview
     id="namedview1"
     pagecolor="#ffffff"
     bordercolor="#000000"
     borderopacity="0.25"
     inkscape:showpageshadow="2"
     inkscape:pageopacity="0.0"
     inkscape:pagecheckerboard="0"
     inkscape:deskcolor="#d1d1d1"
     inkscape:document-units="mm"
     inkscape:zoom="4.8801341"
     inkscape:cx="36.986689"
     inkscape:cy="46.720028"
     inkscape:window-width="1440"
     inkscape:window-height="791"
     inkscape:window-x="0"
     inkscape:window-y="25"
     inkscape:window-maximized="1"
     inkscape:current-layer="layer1" /><defs
     id="defs1" /><g
     inkscape:label="Layer 1"
     inkscape:groupmode="layer"
     id="layer1"><rect
       style="fill:#2d7abf;stroke:none;stroke-width:20;stroke-linecap:round;stroke-linejoin:round;paint-order:fill markers stroke"
       id="rect1"
       width="16.933332"
       height="16.933332"
       x="4.4504802e-07"
       y="4.4504802e-07" /><path
       d="M 6.5616673,4.0216673 H 5.2916675 A 1.2699996,1.2699996 0 0 0 4.0216677,5.2916676 v 7.6199984 a 1.2699996,1.2699996 0 0 0 1.2699998,1.27 h 6.3499985 a 1.2699996,1.2699996 0 0 0 1.27,-1.27 V 5.2916676 a 1.2699996,1.2699996 0 0 0 -1.27,-1.2700003 h -1.270001"
       id="path2"
       style="fill:none;stroke:#ffffff;stroke-width:1.27;stroke-linecap:round;stroke-linejoin:round;stroke-opacity:1" /><path
       d="m 6.5616673,2.751667 m 0,1.2700003 A 1.2699996,1.2699996 0 0 1 7.8316668,2.751667 h 1.2699994 a 1.2699996,1.2699996 0 0 1 1.2699988,1.2700003 v 0 A 1.2699996,1.2699996 0 0 1 9.1016662,5.2916676 H 7.8316668 A 1.2699996,1.2699996 0 0 1 6.5616673,4.0216673 Z"
       id="path3"
       style="fill:none;stroke:#ffffff;stroke-width:1.27;stroke-linecap:round;stroke-linejoin:round;stroke-opacity:1" /><path
       d="M 6.5616673,8.4666652 H 10.371665"
       id="path4"
       style="fill:none;stroke:#ffffff;stroke-width:1.27;stroke-linecap:round;stroke-linejoin:round;stroke-opacity:1" /><path
       d="M 6.5616673,11.006667 H 10.371665"
       id="path5"
       style="fill:none;stroke:#ffffff;stroke-width:1.27;stroke-linecap:round;stroke-linejoin:round;stroke-opacity:1" /></g></svg>
