<?xml version="1.0" encoding="UTF-8" standalone="no"?>
<svg
   data-name="Layer 1"
   version="1.1"
   viewBox="0 0 16 16"
   id="svg1"
   sodipodi:docname="Extension.svg"
   inkscape:version="1.3.2 (091e20e, 2023-11-25, custom)"
   width="100%"
   height="100%"
   xml:space="preserve"
   xmlns:inkscape="http://www.inkscape.org/namespaces/inkscape"
   xmlns:sodipodi="http://sodipodi.sourceforge.net/DTD/sodipodi-0.dtd"
   xmlns:xlink="http://www.w3.org/1999/xlink"
   xmlns="http://www.w3.org/2000/svg"
   xmlns:svg="http://www.w3.org/2000/svg"><defs
     id="defs1"><linearGradient
       id="linearGradient1"
       inkscape:collect="always"><stop
         style="stop-color:#4760fc;stop-opacity:1;"
         offset="0"
         id="stop1" /><stop
         style="stop-color:#1ce7b6;stop-opacity:1;"
         offset="1"
         id="stop2" /></linearGradient><linearGradient
       inkscape:collect="always"
       xlink:href="#linearGradient1"
       id="linearGradient2"
       x1="8"
       y1="16"
       x2="8"
       y2="0"
       gradientUnits="userSpaceOnUse" /></defs><sodipodi:namedview
     id="namedview1"
     pagecolor="#ffffff"
     bordercolor="#666666"
     borderopacity="1.0"
     inkscape:showpageshadow="2"
     inkscape:pageopacity="0.0"
     inkscape:pagecheckerboard="0"
     inkscape:deskcolor="#d1d1d1"
     inkscape:zoom="8.8984375"
     inkscape:cx="-32.084284"
     inkscape:cy="44.108867"
     inkscape:window-width="2560"
     inkscape:window-height="1377"
     inkscape:window-x="-8"
     inkscape:window-y="-8"
     inkscape:window-maximized="1"
     inkscape:current-layer="g1"
     showgrid="false" /><rect
     width="16"
     height="16"
     fill="#4760fc"
     id="rect1"
     style="fill:url(#linearGradient2)"
     x="0"
     y="0" /><g
     style="fill:none;stroke:currentColor;stroke-width:2;stroke-linecap:round;stroke-linejoin:round"
     id="g1"
     transform="matrix(0.66666666,0,0,0.66666666,4.0000001e-8,0.027227)"><path
       stroke="none"
       d="M 0,0 H 24 V 24 H 0 Z"
       fill="none"
       id="path1-6" /><path
       style="fill:#ffffff;stroke-width:0.0586712;stroke:none"
       d="m 7.8158666,22.72205 c -0.0484,-0.0484 -0.088,-0.109885 -0.088,-0.136625 0,-0.02674 0.0977,-0.348514 0.21716,-0.715054 0.11943,-0.366541 0.24615,-0.765445 0.28158,-0.886455 0.0354,-0.121009 0.19618,-0.645749 0.35721,-1.166089 0.16104,-0.52034 0.41887,-1.371805 0.57296,-1.892145 0.15409,-0.52034 0.46209,-1.550019 0.68445,-2.288175 0.4900304,-1.626711 0.8788704,-2.954733 0.8788704,-3.001647 0,-0.01902 -1.1277604,-0.03459 -2.5061204,-0.03459 -1.82154,0 -2.53703,-0.01408 -2.61926,-0.05155 -0.11393,-0.05191 -0.18357,-0.208575 -0.16032,-0.360628 0.007,-0.04518 0.23524,-0.500618 0.50739,-1.012078 0.27216,-0.51146 0.69881,-1.3259575 0.94813,-1.8099945 0.24932,-0.484037 0.54752,-1.058281 0.66266,-1.276098 0.11515,-0.217816 0.46603,-0.881167 0.77974,-1.474113 0.31371,-0.592945 0.75429,-1.434509 0.97907,-1.870143 0.22478,-0.435633 0.53243,-1.029679 0.68367,-1.320101 0.1512404,-0.290422 0.5468004,-1.052781 0.8790204,-1.69413 0.8409,-1.62332403 0.97219,-1.85997703 1.0969,-1.97713103 0.15949,-0.149829 0.5755,-0.175283 2.6944,-0.16486 1.70816,0.0084 1.81635,0.01364 1.90315,0.0922 0.0506,0.04581 0.092,0.129687 0.092,0.186401 0,0.05671 -0.20063,0.533832 -0.44585,1.060262 -0.24522,0.52643003 -0.54986,1.18486203 -0.67697,1.46318403 -0.12712,0.278321 -0.30523,0.664451 -0.39579,0.858065 -0.0906,0.193615 -0.27854,0.599546 -0.41771,0.90207 -0.13917,0.302523 -0.43609,0.946072 -0.65982,1.430109 -0.22373,0.484037 -0.47169,1.028579 -0.55101,1.210093 -0.0793,0.181514 -0.24426,0.552792 -0.36651,0.825063 l -0.22228,0.495038 h 2.70693 c 1.7609,0 2.73632,0.01573 2.79103,0.04501 0.15634,0.08367 0.18911,0.208608 0.0956,0.364506 -0.0723,0.120607 -0.67521,0.949524 -2.59853,3.5727865 -0.21293,0.290423 -0.58839,0.805262 -0.83434,1.144088 -0.72467,0.998297 -1.57376,2.160426 -2.00939,2.750211 -0.22346,0.302523 -0.98679,1.342103 -1.69631,2.310177 -0.70951,0.968074 -1.4513204,1.977951 -1.6484604,2.244172 -0.19714,0.26622 -0.63114,0.865386 -0.96445,1.33148 -0.69727,0.975068 -0.76349,1.034032 -0.95083,0.846687 z"
       id="path1" /></g></svg>
