<?xml version="1.0" encoding="UTF-8" standalone="no"?>
<!-- Created with Inkscape (http://www.inkscape.org/) -->

<svg
   width="64"
   height="64"
   viewBox="0 0 16.933333 16.933333"
   version="1.1"
   id="svg1"
   xml:space="preserve"
   inkscape:version="1.3 (0e150ed, 2023-07-21)"
   sodipodi:docname="styleguide-icon.svg"
   xmlns:inkscape="http://www.inkscape.org/namespaces/inkscape"
   xmlns:sodipodi="http://sodipodi.sourceforge.net/DTD/sodipodi-0.dtd"
   xmlns="http://www.w3.org/2000/svg"
   xmlns:svg="http://www.w3.org/2000/svg"><sodipodi:namedview
     id="namedview1"
     pagecolor="#ffffff"
     bordercolor="#000000"
     borderopacity="0.25"
     inkscape:showpageshadow="2"
     inkscape:pageopacity="0.0"
     inkscape:pagecheckerboard="0"
     inkscape:deskcolor="#d1d1d1"
     inkscape:document-units="mm"
     inkscape:zoom="4.8801341"
     inkscape:cx="37.089145"
     inkscape:cy="46.720028"
     inkscape:window-width="1440"
     inkscape:window-height="789"
     inkscape:window-x="0"
     inkscape:window-y="25"
     inkscape:window-maximized="1"
     inkscape:current-layer="layer1" /><defs
     id="defs1" /><g
     inkscape:label="Layer 1"
     inkscape:groupmode="layer"
     id="layer1"><rect
       style="fill:#2d7abf;stroke:none;stroke-width:20;stroke-linecap:round;stroke-linejoin:round;paint-order:fill markers stroke"
       id="rect1"
       width="16.933332"
       height="16.933332"
       x="4.4504802e-07"
       y="4.4504802e-07" /><path
       d="m 9.9545374,11.938454 v 0.495977 A 0.99195563,0.99195563 0 0 1 8.9625805,13.426388 H 7.9706265 A 0.99195563,0.99195563 0 0 1 6.9786695,12.434431 V 11.938454 Z M 4.9947595,11.442477 c -0.441421,0 -0.663122,-0.534169 -0.350657,-0.846634 l 1.416018,-1.4170109 -0.726113,-0.241541 a 0.49597782,0.49597782 0 0 1 -0.234101,-0.776205 l 0.03969,-0.04514 1.497357,-1.4978518 -0.375951,-0.187975 a 0.49597782,0.49597782 0 0 1 -0.170123,-0.747438 l 0.04117,-0.04661 1.983912,-1.9839113 a 0.49597782,0.49597782 0 0 1 0.701311,0 l 1.9839125,1.9839113 a 0.49597782,0.49597782 0 0 1 -0.128952,0.79406 l -0.376447,0.187976 1.497853,1.4978528 a 0.49597782,0.49597782 0 0 1 -0.13838,0.798525 l -0.05605,0.02282 -0.726606,0.241541 1.416511,1.4170099 c 0.299074,0.298579 0.109124,0.800507 -0.294114,0.843658 l -0.05654,0.003 z"
       id="path2-7"
       style="fill:#ffffff;stroke-width:0.495976" /></g></svg>
